<svg id="Layer_1" data-name="Layer 1" xmlns="http://www.w3.org/2000/svg" viewBox="0 0 248.93 126.41"><defs><style>.cls-1{fill:#231f20;}.cls-2{fill:#fff;}</style></defs><title>case-logic</title><rect class="cls-1" x="124.47" y="1.94" width="122.53" height="122.53"/><path class="cls-1" d="M122.53,126.41V0h126.4V126.41Zm3.87-3.88H245.06V3.88H126.41V122.53Z"/><rect class="cls-2" x="1.94" y="1.94" width="122.53" height="122.53"/><path class="cls-1" d="M0,126.41V0H126.4V126.41Zm3.87-3.88H122.53V3.88H3.88V122.53Z"/><path class="cls-1" d="M47.58,63.35A5.15,5.15,0,0,0,49,66.92a4.76,4.76,0,0,0,3.42,1.48H85.85a4.76,4.76,0,0,0,3.42-1.48,5.18,5.18,0,0,0,1.41-3.57v-.19a5.17,5.17,0,0,0-1.41-3.57,4.72,4.72,0,0,0-3.42-1.48H52.42A4.72,4.72,0,0,0,49,59.59a5.13,5.13,0,0,0-1.42,3.57v.19Z"/><path class="cls-1" d="M103.81,40.39a4.66,4.66,0,0,0,1.47,3.38,5.1,5.1,0,0,0,3.53,1.4H109a5.1,5.1,0,0,0,3.53-1.4A4.66,4.66,0,0,0,114,40.39V15.66a4.68,4.68,0,0,0-1.47-3.39,5.1,5.1,0,0,0-3.53-1.4h-.19a5.1,5.1,0,0,0-3.53,1.4,4.68,4.68,0,0,0-1.47,3.39V40.39Z"/><path class="cls-1" d="M103.81,110.81a4.68,4.68,0,0,0,1.47,3.39,5.1,5.1,0,0,0,3.53,1.4H109a5.1,5.1,0,0,0,3.53-1.4,4.68,4.68,0,0,0,1.47-3.39V86.22a4.66,4.66,0,0,0-1.47-3.39,5.06,5.06,0,0,0-3.53-1.4h-.19a5.06,5.06,0,0,0-3.53,1.4,4.66,4.66,0,0,0-1.47,3.39v24.59Z"/><path class="cls-1" d="M66.13,100.71a5.12,5.12,0,0,0,1.53,3.64l.12.12a5,5,0,0,0,7,.16L96.21,83.2a5,5,0,0,0-.16-7l-.12-.13a5,5,0,0,0-7-.15L67.5,97.35A4.74,4.74,0,0,0,66.13,100.71Z"/><path class="cls-1" d="M71.45,20.47A5.14,5.14,0,0,0,67.8,22l-.12.12a5,5,0,0,0-.15,7L89,50.55a5,5,0,0,0,7-.15l.13-.14a5,5,0,0,0,.15-7L74.8,21.85A4.7,4.7,0,0,0,71.45,20.47Z"/><path class="cls-2" d="M230.87,87.09a8.28,8.28,0,0,1-8.46,6.7,8.85,8.85,0,0,1-6.36-2.58c-2.35-2.36-2.35-5-2.34-9.47v-.4c0-4.43,0-7.11,2.34-9.46a8.8,8.8,0,0,1,6.36-2.59,8.23,8.23,0,0,1,8.43,6.48l0,.2h-4.08l0-.1a4.45,4.45,0,0,0-4.36-3A4.52,4.52,0,0,0,219,74.24c-1.14,1.23-1.4,2.6-1.4,7.3s.26,6.08,1.4,7.31a4.59,4.59,0,0,0,3.38,1.38,4.43,4.43,0,0,0,4.38-3.14Z"/><polygon class="cls-2" points="140.31 69.59 140.31 93.61 154.88 93.61 154.88 89.94 144.26 89.94 144.26 69.59 140.31 69.59"/><path class="cls-2" d="M160.44,71.88h0c-2.35,2.36-2.35,5.05-2.35,9.51v.39c0,4.45,0,7.15,2.35,9.5a9.18,9.18,0,0,0,12.8,0c2.33-2.33,2.33-5,2.33-9.34v-.72c0-4.37,0-7-2.33-9.34a9.2,9.2,0,0,0-12.8,0Zm1.58,9.7c0-4.78.25-6.08,1.37-7.29a4.84,4.84,0,0,1,6.87,0c1.12,1.21,1.37,2.51,1.37,7.29s-.25,6.08-1.37,7.3a4.86,4.86,0,0,1-6.87,0C162.27,87.66,162,86.37,162,81.58Z"/><path class="cls-2" d="M183.47,71.88h0c-2.36,2.36-2.36,5.05-2.36,9.52v.37c0,4.46,0,7.15,2.36,9.51a9.29,9.29,0,0,0,13.06-.17c1.56-1.65,2.2-3.64,2.2-6.85V80.52h-9v3.33h5.1V85a5.16,5.16,0,0,1-1.17,3.64,4.88,4.88,0,0,1-3.77,1.62,4.58,4.58,0,0,1-3.4-1.39c-1.13-1.23-1.4-2.6-1.4-7.33s.25-6,1.4-7.29a4.88,4.88,0,0,1,8,1.59l0,.11h4.07l-.05-.21a8.48,8.48,0,0,0-8.62-6.49A8.71,8.71,0,0,0,183.47,71.88Z"/><rect class="cls-2" x="204.39" y="69.59" width="3.94" height="23.97"/><path class="cls-2" d="M156.66,50.71a8.28,8.28,0,0,1-8.47,6.71,8.8,8.8,0,0,1-6.36-2.59c-2.35-2.35-2.35-5-2.35-9.47V45c0-4.44,0-7.11,2.35-9.46a8.76,8.76,0,0,1,6.36-2.59,8.2,8.2,0,0,1,8.43,6.48l.06.2h-4.09l0-.1a4.46,4.46,0,0,0-4.37-3,4.6,4.6,0,0,0-3.39,1.38c-1.13,1.24-1.39,2.61-1.39,7.31s.26,6.08,1.39,7.31a4.61,4.61,0,0,0,3.39,1.39,4.43,4.43,0,0,0,4.38-3.15Z"/><path class="cls-2" d="M193.26,50.71c.61,1.86,2.48,3.27,5.28,3.28a3.65,3.65,0,0,0,3.83-3.83c-.13-2-3.13-2.91-5.29-3.7-3.31-1.22-6.74-2.5-6.74-6.74,0-4.85,3.87-6.78,7.71-6.78,7.75,0,8.41,6.65,8.41,6.65h-4.1s-.24-3.26-4.27-3.26c-.92,0-3.82.64-3.87,3.48,0,2.38,3.82,3.33,6.43,4.27,3.66,1.32,5.75,2.77,5.75,6.34a6,6,0,0,1-2.09,4.6,9.24,9.24,0,0,1-6.57,2.38c-6.42-.11-8.17-4.73-8.58-6.69Z"/><path class="cls-2" d="M216.21,35.5h0c-2.35,2.35-2.35,5-2.35,9.47v.39c0,4.44,0,7.12,2.35,9.47a8.81,8.81,0,0,0,6.36,2.58A8.28,8.28,0,0,0,231,51l.09-.33H227l-.08.23a4.48,4.48,0,0,1-4.36,2.91,4.6,4.6,0,0,1-3.39-1.38c-1-1.12-1.32-2.36-1.38-5.85h13.58V45.24c0-1.84,0-3.48-.16-4.87-.44-5.5-4.06-7.46-8.65-7.46A8.84,8.84,0,0,0,216.21,35.5Zm6.36,1c2.34,0,4.21.83,4.61,3.78a19.71,19.71,0,0,1,.23,2.93h-9.59c.08-3.07.37-4.25,1.36-5.32A4.63,4.63,0,0,1,222.57,36.47Z"/><path class="cls-2" d="M177.52,54.69a6.78,6.78,0,0,1-5.24,2.75c-6.86.35-8.61-4.29-8.61-7,0-3.59,2.11-5,5.79-6.37,2.62-1,7.4-1.89,7.71-4.37.36-3-2.43-3.53-4.08-3.43a4.17,4.17,0,0,0-4.23,3.31h-4.11s.9-6.73,8.69-6.73c3.87,0,7.53,1.94,7.53,6.83v8.37a39.29,39.29,0,0,0,1,8.89H178C177.75,56,177.52,54.69,177.52,54.69ZM177.21,45a26.68,26.68,0,0,1-4,1.41c-2.59.8-5.74,1.65-5.5,4.31.17,1.9,1.56,3.39,4.45,3.25a5.36,5.36,0,0,0,5.09-3.69Z"/><path class="cls-2" d="M236.68,94.05a3.34,3.34,0,0,1,1,2.36,3.26,3.26,0,0,1-1,2.39,3.39,3.39,0,0,1-2.39,1,3.41,3.41,0,0,1-3.37-3.38,3.4,3.4,0,0,1,1-2.4,3.22,3.22,0,0,1,2.35-1A3.35,3.35,0,0,1,236.68,94.05Zm-4.41.31a2.93,2.93,0,0,0-.87,2,2.81,2.81,0,0,0,.83,2,2.84,2.84,0,0,0,2,.86,2.93,2.93,0,0,0,2.08-.84,2.78,2.78,0,0,0,.84-2,2.87,2.87,0,0,0-2.87-2.92A2.75,2.75,0,0,0,232.27,94.36Zm2.07.1c1.07,0,1.6.37,1.6,1a1,1,0,0,1-.84,1l.84,1.71H235l-.74-1.57h-.59v1.57h-.81V94.46Zm-.64,1.7h.53c.6,0,.88-.17.88-.58s-.3-.6-.92-.6h-.49Z"/></svg>