<svg id="ÉåÉCÉÑÅ_1" data-name="ÉåÉCÉÑÅ[ 1" xmlns="http://www.w3.org/2000/svg" viewBox="0 0 281.64 86.78"><defs><style>.cls-1{fill:#231f20;fill-rule:evenodd;}</style></defs><title>chloe [Converted]</title><path class="cls-1" d="M171.4,421.16c11.58,0,16.54-6.82,18.2-9.58a87.71,87.71,0,0,0,4.69-9.53c1.35-3.15,2.62-4.55,4.12-4.55,1.31,0,2.14,1,2.14,2.7,0,.88-2.49,13.55-2.58,14.16-.55,3.42-1.06,4.82-2.14,6a9.14,9.14,0,0,1-2.21,1.6,46.28,46.28,0,0,1-23.22,6.33c-24.31,0-43-18.46-43-42.47,0-17.55,9.23-32.39,24.8-39.88a41,41,0,0,1,20.67-4.38c10.84.5,19,6.56,21.32,7.89,3.82,2.22,3.36,5.68,3.45,6.78.37,4.44.59,9.6.59,10.76,0,3-.62,4.16-2.18,4.16-1.33,0-2.05-.88-3.21-3.93-4.52-11.86-11.66-18.07-20.83-18.07-9.57,0-18.45,6.07-22.69,15.52-2.47,5.5-3.67,12.07-3.67,20.1,0,13.41,3.38,23.39,10.07,29.76C160.92,419.43,166.34,421.16,171.4,421.16Z" transform="translate(-127.41 -341.48)"/><path class="cls-1" d="M223.69,347.54c0,2.12-.14,24.32-.14,24.83,0,1.65.42,2.44,1.3,2.44a4.56,4.56,0,0,0,2.27-.93,23,23,0,0,1,11.09-3,20.81,20.81,0,0,1,11.83,3.4,14.28,14.28,0,0,1,5,6.81c.68,2,.86,3.51.9,7.56.07,3.56.35,25.09.35,25.09,0,5.06.67,6.65,3.52,8.38,1.38.84,1.79,1.2,1.75,1.72-.13,1.4-2.69,1.53-7.89,1.53l-13.09.19c-3.12,0-4.42-.42-4.42-1.42,0-.63.6-1.35,2.13-2.51a7.29,7.29,0,0,0,2.93-6.37c0-.47-.41-29.51-.41-29.51-.08-5.26-4.4-6.36-7.73-6.48a10.63,10.63,0,0,0-8.27,4c-.84,1.13-1,3.57-1,6,.05,3.27-.14,24.06-.14,24.67a12.61,12.61,0,0,0,.79,5.14c.48,1,.93,1.46,2.53,2.46,1.92,1.2,2.73,2,2.73,2.64,0,1.08-1.8,1.46-3.94,1.46l-17.61,0c-2.9,0-4.22-.42-4.16-1.37s2.08-1.88,2.91-2.81a6.79,6.79,0,0,0,1.77-4c0-1.13.08-55.52.08-55.52-.13-5.17-1.08-5.9-2.34-6.9s-1.89-1.6-1.89-2.25.53-1.08,1.89-1.57a86.17,86.17,0,0,0,8.5-3.45c4.19-2.35,4.94-4.84,7-4.69C223.66,343.12,223.69,345.42,223.69,347.54Z" transform="translate(-127.41 -341.48)"/><path class="cls-1" d="M286.45,347s.49,64.84.49,65.7c0,4.17.3,6.21,1.32,7.52.86,1.11,4.81,2.22,4.56,4.07-.11.86-2.36,1-4.63,1l-17,.12c-3.67-.1-4.72-.35-4.72-1.1s2-1.93,3.08-2.84c1.6-1.35,2.07-1.9,2.07-5,0-.34-.23-56.83-.23-56.83a5.11,5.11,0,0,0-2.37-4.69c-1.15-.72-2-1.43-1.55-2.39s1.66-1.38,3-1.75a41.28,41.28,0,0,0,5.45-2.05,24.16,24.16,0,0,0,5.86-3.73c1.28-1,1.63-1.58,2.77-1.69S286.53,344,286.45,347Z" transform="translate(-127.41 -341.48)"/><path class="cls-1" d="M396.59,351.91c3,.71,4.5,1.82,4.5,3.89,0,2.57-2.59,5.6-7.16,8.34-3.26,1.95-7.46,3.47-9.63,3.47-1,0-3.09-.08-3.09-2,0-1,.93-1.94,3.22-3.39a6.06,6.06,0,0,0,2.41-2.15,4.92,4.92,0,0,0,.84-2.74,4.85,4.85,0,0,0-1.73-3.65c-1.13-1.16-1.56-1.89-1.56-2.58,0-1.85,2.61-2.22,4.09-1.73C390.65,350.14,396.25,351.82,396.59,351.91Z" transform="translate(-127.41 -341.48)"/><path class="cls-1" d="M398.22,401c2.34,0,9,.34,10-.73.87-.89.8-1.68.8-3.29C409.05,384,400,371,384.29,371c-17.13,0-27,15.9-27,27.54a28,28,0,0,0,27.87,28.22c8.09,0,15.92-3.31,20.82-8.78,1.22-1.35,1.75-2.41,1.75-3.44a2.33,2.33,0,0,0-2.31-2.36c-.84,0-1.76.53-3.14,1.81-2.36,2.16-9,7.09-15.62,5.7-12.82-2.72-12.57-17-11.95-18.74Zm-23.67-10.37c1.11-4.56,3-13.31,9.62-13.31,5.42,0,8,7,8.75,13.93.18,1.72.37,3.33-3.7,3.33l-11.23,0C373.94,394.51,373.94,393.12,374.55,390.58Z" transform="translate(-127.41 -341.48)"/><path class="cls-1" d="M325,370.88c-20.31,0-29.49,16-29.49,27.24,0,14.28,9.8,28.84,28.56,28.84,16.13,0,28.37-12.2,28.37-28C352.4,383.44,340,370.88,325,370.88Zm.28,49.66c-10.23,0-13.19-10.6-13.19-21.82,0-14.54,6.53-21.45,11.22-21.45,11.22,0,12.94,12.64,12.94,21.45C336.21,413.88,330.54,420.54,325.24,420.54Z" transform="translate(-127.41 -341.48)"/></svg>